<svg xmlns="http://www.w3.org/2000/svg" viewBox="0 0 904 234" width="904" height="234" role="img"><defs><marker id="head" viewBox="0 0 10 10" refX="9" refY="5" markerWidth="6" markerHeight="6" orient="auto-start-reverse"><path d="M 0 0 L 10 5 L 0 10 z" fill="#9198a1"/></marker></defs><g transform="translate(2,2)"><rect width="900" height="230" fill="none"/><rect x="0" y="34" width="250" height="132" rx="10" fill="#151b23" stroke="#3d444d" stroke-width="1.5"/><text x="24" y="64" fill="#9198a1" font-family="-apple-system,BlinkMacSystemFont,Segoe UI,Helvetica,Arial,sans-serif" font-size="13" font-weight="600" text-anchor="start" opacity="1.0">macOS</text><rect x="24" y="82" width="44" height="30" rx="6" fill="#151b23" stroke="#3d444d" stroke-width="1.5"/><text x="46.0" y="102" fill="#e6edf3" font-family="ui-monospace,SFMono-Regular,SF Mono,Menlo,Consolas,monospace" font-size="13" font-weight="400" text-anchor="middle" opacity="1.0">⌘</text><rect x="76" y="82" width="44" height="30" rx="6" fill="#151b23" stroke="#3d444d" stroke-width="1.5"/><text x="98.0" y="102" fill="#e6edf3" font-family="ui-monospace,SFMono-Regular,SF Mono,Menlo,Consolas,monospace" font-size="13" font-weight="400" text-anchor="middle" opacity="1.0">⌥</text><rect x="128" y="82" width="44" height="30" rx="6" fill="#151b23" stroke="#3d444d" stroke-width="1.5"/><text x="150.0" y="102" fill="#e6edf3" font-family="ui-monospace,SFMono-Regular,SF Mono,Menlo,Consolas,monospace" font-size="13" font-weight="400" text-anchor="middle" opacity="1.0">ctrl</text><text x="24" y="146" fill="#4493f8" font-family="ui-monospace,SFMono-Regular,SF Mono,Menlo,Consolas,monospace" font-size="12" font-weight="400" text-anchor="start" opacity="1.0">platform 1</text><rect x="310" y="52" width="280" height="96" rx="14" fill="#151b23" stroke="#3d444d" stroke-width="1.5"/><rect x="330" y="70" width="19" height="16" rx="3.5" fill="#3d444d"/><rect x="357" y="70" width="19" height="16" rx="3.5" fill="#3d444d"/><rect x="384" y="70" width="19" height="16" rx="3.5" fill="#3d444d"/><rect x="411" y="70" width="19" height="16" rx="3.5" fill="#3d444d"/><rect x="438" y="70" width="19" height="16" rx="3.5" fill="#3d444d"/><rect x="465" y="70" width="19" height="16" rx="3.5" fill="#3d444d"/><rect x="492" y="70" width="19" height="16" rx="3.5" fill="#3d444d"/><rect x="519" y="70" width="19" height="16" rx="3.5" fill="#3d444d"/><rect x="546" y="70" width="19" height="16" rx="3.5" fill="#3d444d"/><rect x="330" y="94" width="19" height="16" rx="3.5" fill="#3d444d"/><rect x="357" y="94" width="19" height="16" rx="3.5" fill="#3d444d"/><rect x="384" y="94" width="19" height="16" rx="3.5" fill="#3d444d"/><rect x="411" y="94" width="19" height="16" rx="3.5" fill="#3d444d"/><rect x="438" y="94" width="19" height="16" rx="3.5" fill="#3d444d"/><rect x="465" y="94" width="19" height="16" rx="3.5" fill="#3d444d"/><rect x="492" y="94" width="19" height="16" rx="3.5" fill="#3d444d"/><rect x="519" y="94" width="19" height="16" rx="3.5" fill="#3d444d"/><rect x="546" y="94" width="19" height="16" rx="3.5" fill="#3d444d"/><rect x="330" y="118" width="19" height="16" rx="3.5" fill="#3d444d"/><rect x="357" y="118" width="19" height="16" rx="3.5" fill="#3d444d"/><rect x="384" y="118" width="19" height="16" rx="3.5" fill="#3d444d"/><rect x="411" y="118" width="19" height="16" rx="3.5" fill="#3d444d"/><rect x="438" y="118" width="19" height="16" rx="3.5" fill="#3d444d"/><rect x="465" y="118" width="19" height="16" rx="3.5" fill="#3d444d"/><rect x="492" y="118" width="19" height="16" rx="3.5" fill="#3d444d"/><rect x="519" y="118" width="19" height="16" rx="3.5" fill="#3d444d"/><rect x="546" y="118" width="19" height="16" rx="3.5" fill="#3d444d"/><text x="450" y="176" fill="#e6edf3" font-family="-apple-system,BlinkMacSystemFont,Segoe UI,Helvetica,Arial,sans-serif" font-size="14" font-weight="600" text-anchor="middle" opacity="1.0">one keyboard</text><text x="450" y="196" fill="#9198a1" font-family="ui-monospace,SFMono-Regular,SF Mono,Menlo,Consolas,monospace" font-size="12" font-weight="400" text-anchor="middle" opacity="1.0">KVM · Easy-Switch · cable</text><rect x="650" y="34" width="250" height="132" rx="10" fill="#151b23" stroke="#3d444d" stroke-width="1.5"/><text x="674" y="64" fill="#9198a1" font-family="-apple-system,BlinkMacSystemFont,Segoe UI,Helvetica,Arial,sans-serif" font-size="13" font-weight="600" text-anchor="start" opacity="1.0">Windows</text><rect x="674" y="82" width="44" height="30" rx="6" fill="#151b23" stroke="#3d444d" stroke-width="1.5"/><text x="696.0" y="102" fill="#e6edf3" font-family="ui-monospace,SFMono-Regular,SF Mono,Menlo,Consolas,monospace" font-size="13" font-weight="400" text-anchor="middle" opacity="1.0">ctrl</text><rect x="726" y="82" width="44" height="30" rx="6" fill="#151b23" stroke="#3d444d" stroke-width="1.5"/><text x="748.0" y="102" fill="#e6edf3" font-family="ui-monospace,SFMono-Regular,SF Mono,Menlo,Consolas,monospace" font-size="13" font-weight="400" text-anchor="middle" opacity="1.0">alt</text><rect x="778" y="82" width="44" height="30" rx="6" fill="#151b23" stroke="#3d444d" stroke-width="1.5"/><text x="800.0" y="102" fill="#e6edf3" font-family="ui-monospace,SFMono-Regular,SF Mono,Menlo,Consolas,monospace" font-size="13" font-weight="400" text-anchor="middle" opacity="1.0">win</text><text x="674" y="146" fill="#4493f8" font-family="ui-monospace,SFMono-Regular,SF Mono,Menlo,Consolas,monospace" font-size="12" font-weight="400" text-anchor="start" opacity="1.0">platform 0</text><line x1="300" y1="100" x2="262" y2="100" stroke="#4493f8" stroke-width="1.75" marker-end="url(#head)"/><line x1="600" y1="100" x2="638" y2="100" stroke="#4493f8" stroke-width="1.75" marker-end="url(#head)"/><text x="450" y="26" fill="#e6edf3" font-family="-apple-system,BlinkMacSystemFont,Segoe UI,Helvetica,Arial,sans-serif" font-size="15" font-weight="600" text-anchor="middle" opacity="1.0">the layout follows the machine</text><text x="450" y="220" fill="#3fb950" font-family="ui-monospace,SFMono-Regular,SF Mono,Menlo,Consolas,monospace" font-size="12" font-weight="400" text-anchor="middle" opacity="1.0">corrected in ~1 s, measured</text></g></svg>
